<svg xmlns="http://www.w3.org/2000/svg" viewBox="364 346.6 114 13.6" fill="#FFFFFF" role="img" aria-label="VINFINITY"><path d="M 371.226562 359.5625 L 370.046875 359.5625 L 364.773438 347.371094 L 367.195312 347.371094 L 371.324219 357.117188 L 376.0625 347.371094 L 377.109375 347.371094 Z M 371.226562 359.5625 "/><path d="M 385.511719 359.574219 L 382.402344 359.574219 L 382.402344 348.453125 L 381.417969 347.425781 L 384.527344 347.425781 L 384.527344 358.628906 Z M 385.511719 359.574219 "/><path d="M 401.53125 359.644531 L 400.578125 359.644531 L 391.398438 350.433594 L 391.398438 359.609375 L 390.4375 359.609375 L 390.445312 347.363281 L 391.398438 347.363281 C 391.398438 347.367188 394.480469 350.4375 400.640625 356.570312 L 400.640625 347.371094 L 401.617188 347.363281 Z M 401.53125 359.644531 "/><path d="M 407.25 359.660156 L 407.25 347.425781 L 415.039062 347.425781 L 415.039062 348.382812 L 409.394531 348.382812 L 409.394531 353.066406 L 413.445312 353.066406 L 413.445312 354.027344 L 409.394531 354.027344 L 409.386719 359.652344 Z M 407.25 359.660156 "/><path d="M 424.058594 359.574219 L 420.953125 359.574219 L 420.953125 351.417969 L 419.964844 350.386719 L 423.074219 350.386719 L 423.074219 358.628906 Z M 424.058594 359.574219 "/><path d="M 440.078125 359.644531 L 439.125 359.644531 L 429.945312 350.433594 L 429.945312 359.609375 L 428.984375 359.609375 L 428.992188 347.363281 L 429.945312 347.363281 C 429.945312 347.367188 433.027344 350.4375 439.1875 356.570312 L 439.1875 347.371094 L 440.164062 347.363281 Z M 440.078125 359.644531 "/><path d="M 448.699219 359.574219 L 445.59375 359.574219 L 445.59375 348.453125 L 444.605469 347.425781 L 447.714844 347.425781 L 447.714844 358.628906 Z M 448.699219 359.574219 "/><path d="M 457.941406 359.574219 L 455.828125 359.574219 L 455.855469 348.320312 L 452.921875 348.320312 L 452.921875 347.371094 L 460.917969 347.371094 L 460.917969 348.320312 L 457.976562 348.320312 Z M 457.941406 359.574219 "/><path d="M 470.359375 359.625 L 470.359375 353.746094 L 465.578125 347.414062 L 468.4375 347.414062 L 471.765625 351.964844 L 475.394531 347.414062 L 477.003906 347.414062 L 472.480469 352.925781 L 472.480469 359.605469 Z M 470.359375 359.625 "/><path d="M 423.199219 348.214844 C 423.199219 348.867188 422.667969 349.398438 422.011719 349.398438 C 421.359375 349.398438 420.828125 348.867188 420.828125 348.214844 C 420.828125 347.558594 421.359375 347.027344 422.011719 347.027344 C 422.667969 347.027344 423.199219 347.558594 423.199219 348.214844 "/></svg>
